<svg width="100" height="100" viewBox="0 0 100 100" fill="none" xmlns="http://www.w3.org/2000/svg">
  <rect width="100" height="100" rx="10" fill="#002A5C"/>
  <path d="M50 20C36.19 20 25 31.19 25 45C25 58.81 36.19 70 50 70C63.81 70 75 58.81 75 45C75 31.19 63.81 20 50 20ZM50 65C38.95 65 30 56.05 30 45C30 33.95 38.95 25 50 25C61.05 25 70 33.95 70 45C70 56.05 61.05 65 50 65Z" fill="white"/>
  <path d="M50 30C41.72 30 35 36.72 35 45C35 53.28 41.72 60 50 60C58.28 60 65 53.28 65 45C65 36.72 58.28 30 50 30ZM50 55C44.48 55 40 50.52 40 45C40 39.48 44.48 35 50 35C55.52 35 60 39.48 60 45C60 50.52 55.52 55 50 55Z" fill="#FFD600"/>
  <path d="M35 75H65V80H35V75Z" fill="white"/>
</svg>
